G75*
%MOIN*%
%OFA0B0*%
%FSLAX25Y25*%
%IPPOS*%
%LPD*%
%AMOC8*
5,1,8,0,0,1.08239X$1,22.5*
%
%ADD10C,0.00000*%
%ADD11C,0.00600*%
%ADD12R,0.03780X0.00157*%
%ADD13R,0.06614X0.00157*%
%ADD14R,0.08189X0.00157*%
%ADD15R,0.09764X0.00157*%
%ADD16R,0.03150X0.00157*%
%ADD17R,0.02835X0.00157*%
%ADD18R,0.02362X0.00157*%
%ADD19R,0.02205X0.00157*%
%ADD20R,0.02047X0.00157*%
%ADD21R,0.04882X0.00157*%
%ADD22R,0.01890X0.00157*%
%ADD23R,0.08504X0.00157*%
%ADD24R,0.01732X0.00157*%
%ADD25R,0.09134X0.00157*%
%ADD26R,0.10079X0.00157*%
%ADD27R,0.01575X0.00157*%
%ADD28R,0.04724X0.00157*%
%ADD29R,0.00630X0.00157*%
%ADD30R,0.01417X0.00157*%
%ADD31R,0.05197X0.00157*%
%ADD32R,0.02677X0.00157*%
%ADD33R,0.00157X0.00157*%
%ADD34R,0.01260X0.00157*%
%ADD35R,0.00315X0.00157*%
%ADD36R,0.00787X0.00157*%
%ADD37R,0.01102X0.00157*%
%ADD38R,0.00945X0.00157*%
%ADD39R,0.03307X0.00157*%
%ADD40R,0.05984X0.00157*%
%ADD41R,0.05039X0.00157*%
%ADD42R,0.03465X0.00157*%
%ADD43R,0.00472X0.00157*%
%ADD44R,0.02520X0.00157*%
%ADD45R,0.05512X0.00157*%
%ADD46R,0.04252X0.00157*%
%ADD47R,0.04094X0.00157*%
%ADD48R,0.05827X0.00157*%
%ADD49R,0.06299X0.00157*%
%ADD50R,0.06142X0.00157*%
%ADD51R,0.03937X0.00157*%
%ADD52R,0.02992X0.00157*%
%ADD53R,0.06929X0.00157*%
%ADD54R,0.04567X0.00157*%
%ADD55R,0.05354X0.00157*%
%ADD56R,0.04409X0.00157*%
%ADD57R,0.05669X0.00157*%
%ADD58C,0.00500*%
D10*
X0001800Y0002000D02*
X0001800Y0198850D01*
X0198650Y0198850D01*
X0198650Y0002000D01*
X0001800Y0002000D01*
D11*
X0016656Y0063550D02*
X0015589Y0064618D01*
X0015589Y0068888D01*
X0016656Y0069955D01*
X0019859Y0069955D01*
X0019859Y0063550D01*
X0016656Y0063550D01*
X0022034Y0063550D02*
X0022034Y0069955D01*
X0022541Y0073550D02*
X0023609Y0073550D01*
X0023609Y0074618D01*
X0022541Y0074618D01*
X0022541Y0073550D01*
X0020386Y0074618D02*
X0019319Y0073550D01*
X0017184Y0073550D01*
X0016116Y0074618D01*
X0016116Y0075685D01*
X0017184Y0076753D01*
X0018251Y0076753D01*
X0017184Y0076753D02*
X0016116Y0077820D01*
X0016116Y0078888D01*
X0017184Y0079955D01*
X0019319Y0079955D01*
X0020386Y0078888D01*
X0018480Y0083550D02*
X0018480Y0087820D01*
X0020615Y0089955D01*
X0022750Y0087820D01*
X0022750Y0083550D01*
X0022750Y0086753D02*
X0018480Y0086753D01*
X0016305Y0086753D02*
X0012034Y0086753D01*
X0013102Y0089955D02*
X0016305Y0086753D01*
X0013102Y0083550D02*
X0013102Y0089955D01*
X0013102Y0093550D02*
X0013102Y0099955D01*
X0016305Y0096753D01*
X0012034Y0096753D01*
X0013102Y0103550D02*
X0012034Y0104618D01*
X0012034Y0105685D01*
X0013102Y0106753D01*
X0014169Y0106753D01*
X0013102Y0106753D02*
X0012034Y0107820D01*
X0012034Y0108888D01*
X0013102Y0109955D01*
X0015237Y0109955D01*
X0016305Y0108888D01*
X0018480Y0108888D02*
X0019547Y0109955D01*
X0022750Y0109955D01*
X0022750Y0103550D01*
X0019547Y0103550D01*
X0018480Y0104618D01*
X0018480Y0105685D01*
X0019547Y0106753D01*
X0022750Y0106753D01*
X0019547Y0106753D02*
X0018480Y0107820D01*
X0018480Y0108888D01*
X0016305Y0104618D02*
X0015237Y0103550D01*
X0013102Y0103550D01*
X0018480Y0098888D02*
X0018480Y0097820D01*
X0019547Y0096753D01*
X0022750Y0096753D01*
X0022750Y0099955D02*
X0019547Y0099955D01*
X0018480Y0098888D01*
X0019547Y0096753D02*
X0018480Y0095685D01*
X0018480Y0094618D01*
X0019547Y0093550D01*
X0022750Y0093550D01*
X0022750Y0099955D01*
X0022750Y0113550D02*
X0019547Y0113550D01*
X0018480Y0114618D01*
X0018480Y0115685D01*
X0019547Y0116753D01*
X0022750Y0116753D01*
X0022750Y0119955D02*
X0022750Y0113550D01*
X0019547Y0116753D02*
X0018480Y0117820D01*
X0018480Y0118888D01*
X0019547Y0119955D01*
X0022750Y0119955D01*
X0022750Y0123550D02*
X0022750Y0127820D01*
X0020615Y0129955D01*
X0018480Y0127820D01*
X0018480Y0123550D01*
X0016305Y0123550D02*
X0012034Y0123550D01*
X0014169Y0123550D02*
X0014169Y0129955D01*
X0016305Y0127820D01*
X0018480Y0126753D02*
X0022750Y0126753D01*
X0022750Y0133550D02*
X0022750Y0137820D01*
X0020615Y0139955D01*
X0018480Y0137820D01*
X0018480Y0133550D01*
X0016305Y0134618D02*
X0012034Y0138888D01*
X0012034Y0134618D01*
X0013102Y0133550D01*
X0015237Y0133550D01*
X0016305Y0134618D01*
X0016305Y0138888D01*
X0015237Y0139955D01*
X0013102Y0139955D01*
X0012034Y0138888D01*
X0018480Y0136753D02*
X0022750Y0136753D01*
X0015237Y0119955D02*
X0013102Y0119955D01*
X0012034Y0118888D01*
X0012034Y0117820D01*
X0016305Y0113550D01*
X0012034Y0113550D01*
X0016305Y0118888D02*
X0015237Y0119955D01*
X0013941Y0079955D02*
X0013941Y0075685D01*
X0011806Y0073550D01*
X0009670Y0075685D01*
X0009670Y0079955D01*
X0025784Y0078888D02*
X0025784Y0077820D01*
X0026852Y0076753D01*
X0025784Y0075685D01*
X0025784Y0074618D01*
X0026852Y0073550D01*
X0028987Y0073550D01*
X0030055Y0074618D01*
X0027919Y0076753D02*
X0026852Y0076753D01*
X0025784Y0078888D02*
X0026852Y0079955D01*
X0028987Y0079955D01*
X0030055Y0078888D01*
X0032230Y0076753D02*
X0036500Y0076753D01*
X0034365Y0078888D02*
X0034365Y0074618D01*
X0031682Y0069955D02*
X0032750Y0068888D01*
X0032750Y0064618D01*
X0031682Y0063550D01*
X0029547Y0063550D01*
X0028480Y0064618D01*
X0028480Y0066753D01*
X0030615Y0066753D01*
X0028480Y0068888D02*
X0029547Y0069955D01*
X0031682Y0069955D01*
X0026305Y0069955D02*
X0022034Y0063550D01*
X0026305Y0063550D02*
X0026305Y0069955D01*
X0170589Y0075685D02*
X0170589Y0079955D01*
X0170589Y0075685D02*
X0172724Y0073550D01*
X0174859Y0075685D01*
X0174859Y0079955D01*
X0177034Y0079955D02*
X0181305Y0079955D01*
X0181305Y0076753D01*
X0179169Y0077820D01*
X0178102Y0077820D01*
X0177034Y0076753D01*
X0177034Y0074618D01*
X0178102Y0073550D01*
X0180237Y0073550D01*
X0181305Y0074618D01*
X0183480Y0076753D02*
X0187750Y0076753D01*
X0185615Y0078888D02*
X0185615Y0074618D01*
X0185797Y0069955D02*
X0187932Y0069955D01*
X0189000Y0068888D01*
X0189000Y0064618D01*
X0187932Y0063550D01*
X0185797Y0063550D01*
X0184730Y0064618D01*
X0184730Y0066753D01*
X0186865Y0066753D01*
X0184730Y0068888D02*
X0185797Y0069955D01*
X0182555Y0069955D02*
X0178284Y0063550D01*
X0178284Y0069955D01*
X0176109Y0069955D02*
X0172906Y0069955D01*
X0171839Y0068888D01*
X0171839Y0064618D01*
X0172906Y0063550D01*
X0176109Y0063550D01*
X0176109Y0069955D01*
X0182555Y0069955D02*
X0182555Y0063550D01*
X0181305Y0083550D02*
X0181305Y0084618D01*
X0177034Y0088888D01*
X0177034Y0089955D01*
X0181305Y0089955D01*
X0183480Y0088888D02*
X0183480Y0087820D01*
X0184547Y0086753D01*
X0187750Y0086753D01*
X0187750Y0089955D02*
X0184547Y0089955D01*
X0183480Y0088888D01*
X0184547Y0086753D02*
X0183480Y0085685D01*
X0183480Y0084618D01*
X0184547Y0083550D01*
X0187750Y0083550D01*
X0187750Y0089955D01*
X0189000Y0093550D02*
X0185797Y0093550D01*
X0184730Y0094618D01*
X0184730Y0095685D01*
X0185797Y0096753D01*
X0189000Y0096753D01*
X0189000Y0099955D02*
X0185797Y0099955D01*
X0184730Y0098888D01*
X0184730Y0097820D01*
X0185797Y0096753D01*
X0189000Y0093550D02*
X0189000Y0099955D01*
X0189000Y0103550D02*
X0185797Y0103550D01*
X0184730Y0104618D01*
X0184730Y0105685D01*
X0185797Y0106753D01*
X0189000Y0106753D01*
X0189000Y0109955D02*
X0189000Y0103550D01*
X0185797Y0106753D02*
X0184730Y0107820D01*
X0184730Y0108888D01*
X0185797Y0109955D01*
X0189000Y0109955D01*
X0187750Y0113550D02*
X0184547Y0113550D01*
X0183480Y0114618D01*
X0183480Y0115685D01*
X0184547Y0116753D01*
X0187750Y0116753D01*
X0187750Y0119955D02*
X0187750Y0113550D01*
X0184547Y0116753D02*
X0183480Y0117820D01*
X0183480Y0118888D01*
X0184547Y0119955D01*
X0187750Y0119955D01*
X0187750Y0123550D02*
X0184547Y0123550D01*
X0183480Y0124618D01*
X0183480Y0125685D01*
X0184547Y0126753D01*
X0187750Y0126753D01*
X0187750Y0129955D02*
X0187750Y0123550D01*
X0184547Y0126753D02*
X0183480Y0127820D01*
X0183480Y0128888D01*
X0184547Y0129955D01*
X0187750Y0129955D01*
X0187750Y0133550D02*
X0184547Y0133550D01*
X0183480Y0134618D01*
X0183480Y0135685D01*
X0184547Y0136753D01*
X0187750Y0136753D01*
X0187750Y0139955D02*
X0184547Y0139955D01*
X0183480Y0138888D01*
X0183480Y0137820D01*
X0184547Y0136753D01*
X0181305Y0137820D02*
X0179169Y0139955D01*
X0179169Y0133550D01*
X0177034Y0133550D02*
X0181305Y0133550D01*
X0179169Y0129955D02*
X0179169Y0123550D01*
X0177034Y0123550D02*
X0181305Y0123550D01*
X0179169Y0119955D02*
X0179169Y0113550D01*
X0177034Y0113550D02*
X0181305Y0113550D01*
X0181487Y0109955D02*
X0179352Y0109955D01*
X0178284Y0108888D01*
X0178284Y0104618D01*
X0179352Y0103550D01*
X0181487Y0103550D01*
X0182555Y0104618D01*
X0181487Y0106753D02*
X0178284Y0106753D01*
X0181487Y0106753D02*
X0182555Y0107820D01*
X0182555Y0108888D01*
X0181487Y0109955D01*
X0181305Y0117820D02*
X0179169Y0119955D01*
X0174859Y0118888D02*
X0173791Y0119955D01*
X0171656Y0119955D01*
X0170589Y0118888D01*
X0170589Y0117820D01*
X0171656Y0116753D01*
X0170589Y0115685D01*
X0170589Y0114618D01*
X0171656Y0113550D01*
X0173791Y0113550D01*
X0174859Y0114618D01*
X0172724Y0116753D02*
X0171656Y0116753D01*
X0171656Y0123550D02*
X0171656Y0129955D01*
X0174859Y0126753D01*
X0170589Y0126753D01*
X0171656Y0133550D02*
X0173791Y0133550D01*
X0174859Y0134618D01*
X0174859Y0136753D02*
X0172724Y0137820D01*
X0171656Y0137820D01*
X0170589Y0136753D01*
X0170589Y0134618D01*
X0171656Y0133550D01*
X0174859Y0136753D02*
X0174859Y0139955D01*
X0170589Y0139955D01*
X0179169Y0129955D02*
X0181305Y0127820D01*
X0187750Y0133550D02*
X0187750Y0139955D01*
X0181487Y0099955D02*
X0179352Y0099955D01*
X0178284Y0098888D01*
X0178284Y0097820D01*
X0179352Y0096753D01*
X0181487Y0096753D01*
X0182555Y0097820D01*
X0182555Y0098888D01*
X0181487Y0099955D01*
X0181487Y0096753D02*
X0182555Y0095685D01*
X0182555Y0094618D01*
X0181487Y0093550D01*
X0179352Y0093550D01*
X0178284Y0094618D01*
X0178284Y0095685D01*
X0179352Y0096753D01*
D12*
X0057469Y0115701D03*
D13*
X0057469Y0115858D03*
D14*
X0057469Y0116016D03*
D15*
X0057469Y0116173D03*
D16*
X0053532Y0116331D03*
X0061406Y0116331D03*
X0075737Y0120583D03*
X0073690Y0136488D03*
X0075265Y0139323D03*
X0059674Y0143260D03*
X0050540Y0133969D03*
X0047706Y0134598D03*
D17*
X0045816Y0134126D03*
X0058414Y0143732D03*
X0054950Y0149874D03*
X0068808Y0141685D03*
X0073847Y0141685D03*
X0062194Y0116488D03*
X0052745Y0116488D03*
D18*
X0052036Y0116646D03*
X0062902Y0116646D03*
X0045737Y0127669D03*
X0045737Y0127827D03*
X0045737Y0127984D03*
X0035186Y0127669D03*
X0039438Y0118220D03*
X0049517Y0142157D03*
X0057863Y0148457D03*
X0065107Y0145465D03*
D19*
X0069753Y0145465D03*
X0072587Y0138693D03*
X0075422Y0130346D03*
X0076367Y0130031D03*
X0063454Y0116803D03*
X0051485Y0116803D03*
X0045816Y0127512D03*
X0045816Y0128142D03*
X0045186Y0133969D03*
X0050540Y0149717D03*
X0056209Y0149087D03*
X0038887Y0118378D03*
D20*
X0038335Y0118535D03*
X0045737Y0127354D03*
X0045737Y0128299D03*
X0052981Y0134598D03*
X0049359Y0142000D03*
X0054713Y0148614D03*
X0055658Y0149717D03*
X0061800Y0147039D03*
X0062745Y0148457D03*
X0063847Y0147669D03*
X0064477Y0145307D03*
X0069044Y0144047D03*
X0071091Y0144677D03*
X0071406Y0142315D03*
X0074556Y0141528D03*
X0077863Y0138693D03*
X0077233Y0135701D03*
X0081170Y0132236D03*
X0076603Y0126567D03*
X0076603Y0120425D03*
X0078808Y0119480D03*
X0070461Y0120268D03*
X0064005Y0116961D03*
X0050934Y0116961D03*
X0050146Y0117748D03*
X0035658Y0127827D03*
X0030146Y0126724D03*
X0030146Y0126567D03*
X0030146Y0126409D03*
X0030146Y0126252D03*
X0030146Y0126094D03*
X0072036Y0138535D03*
D21*
X0047627Y0134441D03*
X0046367Y0117118D03*
D22*
X0050540Y0117118D03*
X0045816Y0127197D03*
X0050855Y0133811D03*
X0036209Y0127984D03*
X0030225Y0125937D03*
X0030225Y0125780D03*
X0037942Y0118693D03*
X0064398Y0117118D03*
X0074477Y0124205D03*
X0074635Y0125937D03*
X0076839Y0129874D03*
X0079517Y0125780D03*
X0081564Y0124992D03*
X0071643Y0138378D03*
X0057312Y0148299D03*
D23*
X0046603Y0117276D03*
D24*
X0044005Y0118063D03*
X0037391Y0118850D03*
X0036603Y0128142D03*
X0037076Y0128299D03*
X0045737Y0128457D03*
X0047627Y0134756D03*
X0049517Y0149402D03*
X0049989Y0149559D03*
X0054241Y0148457D03*
X0056131Y0149559D03*
X0056761Y0148142D03*
X0061328Y0146882D03*
X0063217Y0148299D03*
X0064005Y0145150D03*
X0068572Y0143890D03*
X0070304Y0145307D03*
X0075028Y0141370D03*
X0077706Y0135543D03*
X0077706Y0133181D03*
X0074871Y0132394D03*
X0077233Y0129717D03*
X0074871Y0124047D03*
X0077076Y0120268D03*
X0078965Y0119323D03*
X0081800Y0124835D03*
X0069989Y0120110D03*
X0069989Y0119953D03*
X0065265Y0117433D03*
X0064950Y0117276D03*
X0050461Y0117906D03*
D25*
X0045973Y0117433D03*
D26*
X0045658Y0117591D03*
D27*
X0051013Y0118063D03*
X0039674Y0129559D03*
X0039359Y0129402D03*
X0038887Y0129244D03*
X0038257Y0128929D03*
X0037784Y0128772D03*
X0037784Y0128614D03*
X0037469Y0128457D03*
X0029753Y0127512D03*
X0035894Y0119480D03*
X0036682Y0119165D03*
X0036997Y0119008D03*
X0044556Y0133811D03*
X0049123Y0141843D03*
X0050225Y0142315D03*
X0053847Y0148299D03*
X0056052Y0147827D03*
X0056367Y0147984D03*
X0056524Y0149244D03*
X0060934Y0146724D03*
X0063296Y0144835D03*
X0063611Y0144992D03*
X0068178Y0143732D03*
X0067233Y0141213D03*
X0075422Y0141213D03*
X0078257Y0138535D03*
X0078099Y0135386D03*
X0081406Y0132079D03*
X0077627Y0129559D03*
X0075107Y0130504D03*
X0079989Y0125622D03*
X0074162Y0124362D03*
X0073847Y0124520D03*
X0077469Y0120110D03*
X0077469Y0119953D03*
X0079202Y0119165D03*
X0069753Y0119795D03*
X0065658Y0117591D03*
X0049123Y0149244D03*
D28*
X0059359Y0143417D03*
X0074635Y0136173D03*
X0042194Y0117748D03*
D29*
X0045816Y0117748D03*
X0047863Y0121370D03*
X0048020Y0121528D03*
X0048178Y0121843D03*
X0048650Y0122630D03*
X0048650Y0122787D03*
X0048808Y0122945D03*
X0048808Y0123102D03*
X0054635Y0121370D03*
X0054792Y0121685D03*
X0054950Y0122000D03*
X0055107Y0122315D03*
X0055265Y0122630D03*
X0055422Y0122945D03*
X0055422Y0123102D03*
X0055422Y0123260D03*
X0055580Y0123417D03*
X0055580Y0123575D03*
X0055580Y0123732D03*
X0055737Y0124047D03*
X0055737Y0124205D03*
X0055737Y0124362D03*
X0055737Y0124520D03*
X0055737Y0124677D03*
X0055894Y0124992D03*
X0055894Y0125150D03*
X0055894Y0125307D03*
X0055894Y0125465D03*
X0055894Y0125622D03*
X0055894Y0125780D03*
X0055894Y0125937D03*
X0055894Y0126094D03*
X0055894Y0126252D03*
X0055894Y0126409D03*
X0055894Y0126567D03*
X0055894Y0126724D03*
X0055737Y0127039D03*
X0055737Y0127197D03*
X0055737Y0127354D03*
X0055737Y0127512D03*
X0055737Y0127669D03*
X0055737Y0127827D03*
X0055580Y0128142D03*
X0055580Y0128299D03*
X0055580Y0128457D03*
X0055422Y0128614D03*
X0055422Y0128772D03*
X0055422Y0128929D03*
X0055265Y0129244D03*
X0055107Y0129559D03*
X0054950Y0129874D03*
X0054792Y0130189D03*
X0054635Y0130504D03*
X0054477Y0130819D03*
X0054320Y0130976D03*
X0054320Y0131134D03*
X0054635Y0131764D03*
X0054792Y0132079D03*
X0054950Y0132394D03*
X0054950Y0132551D03*
X0054950Y0132709D03*
X0054950Y0132866D03*
X0054792Y0133181D03*
X0054792Y0133339D03*
X0045816Y0128929D03*
X0040461Y0131449D03*
X0040461Y0131606D03*
X0040461Y0131764D03*
X0040461Y0131921D03*
X0040461Y0132079D03*
X0040619Y0132236D03*
X0040619Y0132394D03*
X0040619Y0132551D03*
X0040619Y0132709D03*
X0040776Y0132866D03*
X0040776Y0133024D03*
X0040776Y0133181D03*
X0040934Y0133339D03*
X0040934Y0133496D03*
X0040934Y0133654D03*
X0041091Y0133811D03*
X0041091Y0133969D03*
X0041249Y0134283D03*
X0041406Y0134598D03*
X0041564Y0134913D03*
X0041721Y0135228D03*
X0041564Y0135858D03*
X0041564Y0136016D03*
X0041564Y0136173D03*
X0041564Y0136331D03*
X0041564Y0136488D03*
X0041564Y0136646D03*
X0041564Y0136803D03*
X0041564Y0136961D03*
X0041564Y0137118D03*
X0041564Y0137276D03*
X0041564Y0137433D03*
X0041564Y0137591D03*
X0041564Y0137748D03*
X0041564Y0137906D03*
X0041564Y0138063D03*
X0041564Y0138220D03*
X0041564Y0138378D03*
X0041721Y0138693D03*
X0041721Y0138850D03*
X0041721Y0139008D03*
X0041721Y0139165D03*
X0041721Y0139323D03*
X0041721Y0139480D03*
X0041879Y0139638D03*
X0041879Y0139795D03*
X0041879Y0139953D03*
X0041879Y0140110D03*
X0042036Y0140268D03*
X0042036Y0140425D03*
X0042036Y0140583D03*
X0042194Y0140898D03*
X0042194Y0141055D03*
X0042351Y0141370D03*
X0042351Y0141528D03*
X0042509Y0141843D03*
X0042666Y0142157D03*
X0042666Y0142315D03*
X0042824Y0142630D03*
X0042981Y0142945D03*
X0043139Y0143260D03*
X0043611Y0144047D03*
X0043926Y0144520D03*
X0048965Y0142945D03*
X0048965Y0142787D03*
X0048808Y0142472D03*
X0048808Y0142315D03*
X0049123Y0143260D03*
X0049280Y0143575D03*
X0049438Y0143890D03*
X0049595Y0144205D03*
X0049910Y0144677D03*
X0050855Y0143102D03*
X0040304Y0131291D03*
X0029280Y0127984D03*
X0029753Y0125465D03*
X0029753Y0125307D03*
X0029910Y0124992D03*
X0030068Y0124677D03*
X0073532Y0124835D03*
X0073690Y0125150D03*
X0073847Y0125465D03*
X0073847Y0125622D03*
X0074635Y0130819D03*
X0074635Y0130976D03*
X0074635Y0131134D03*
X0074477Y0131606D03*
X0074477Y0131764D03*
X0074477Y0131921D03*
X0081879Y0131606D03*
X0081564Y0126252D03*
X0082036Y0125465D03*
X0082351Y0124047D03*
X0078729Y0121055D03*
X0079044Y0120583D03*
X0079202Y0120268D03*
X0079359Y0119795D03*
D30*
X0079280Y0119008D03*
X0078178Y0119638D03*
X0077863Y0119795D03*
X0075186Y0123890D03*
X0080383Y0125465D03*
X0080698Y0125307D03*
X0081957Y0124677D03*
X0078335Y0129244D03*
X0078020Y0129402D03*
X0081643Y0131921D03*
X0078493Y0135228D03*
X0075816Y0141055D03*
X0071406Y0138220D03*
X0066209Y0141685D03*
X0062902Y0144677D03*
X0060698Y0146567D03*
X0063690Y0148142D03*
X0064005Y0147984D03*
X0060383Y0143102D03*
X0056446Y0149402D03*
X0053611Y0148142D03*
X0048887Y0149087D03*
X0052981Y0134756D03*
X0045737Y0128772D03*
X0045737Y0128614D03*
X0045737Y0127039D03*
X0040698Y0130976D03*
X0040698Y0131134D03*
X0039910Y0129717D03*
X0038493Y0129087D03*
X0043847Y0133496D03*
X0044162Y0133654D03*
X0035658Y0119638D03*
X0035343Y0119795D03*
X0036288Y0119323D03*
X0044320Y0118220D03*
X0044635Y0118378D03*
X0044950Y0118535D03*
X0051249Y0118220D03*
X0051879Y0118535D03*
X0066052Y0117748D03*
X0066367Y0117906D03*
X0066682Y0118063D03*
X0066997Y0118220D03*
X0071091Y0144992D03*
X0070776Y0145150D03*
D31*
X0067469Y0145780D03*
X0041800Y0117906D03*
X0031564Y0127039D03*
D32*
X0034556Y0127512D03*
X0040068Y0118063D03*
X0049517Y0134126D03*
X0052981Y0134441D03*
X0062587Y0147197D03*
X0063532Y0147512D03*
X0060383Y0149087D03*
X0055973Y0148929D03*
X0070776Y0144520D03*
X0076603Y0135858D03*
X0075658Y0130189D03*
X0070934Y0120425D03*
D33*
X0073926Y0126567D03*
X0074398Y0130031D03*
X0074871Y0130031D03*
X0081957Y0131449D03*
X0079753Y0118220D03*
X0048729Y0141370D03*
D34*
X0052745Y0147669D03*
X0053217Y0147984D03*
X0054950Y0147197D03*
X0055107Y0147354D03*
X0055422Y0147512D03*
X0055737Y0147669D03*
X0059831Y0145937D03*
X0060304Y0146409D03*
X0061879Y0144047D03*
X0062351Y0144362D03*
X0062666Y0144520D03*
X0064241Y0147827D03*
X0067233Y0143260D03*
X0067548Y0143417D03*
X0067863Y0143575D03*
X0065973Y0141843D03*
X0071328Y0144835D03*
X0076052Y0140898D03*
X0076367Y0140740D03*
X0076839Y0140425D03*
X0078729Y0135071D03*
X0079044Y0134913D03*
X0079359Y0134756D03*
X0078887Y0128929D03*
X0082036Y0124520D03*
X0076367Y0123260D03*
X0075894Y0123575D03*
X0075580Y0123732D03*
X0069438Y0119638D03*
X0067863Y0118693D03*
X0067548Y0118535D03*
X0067233Y0118378D03*
X0052115Y0118693D03*
X0051643Y0118378D03*
X0045501Y0118850D03*
X0045186Y0118693D03*
X0034950Y0119953D03*
X0034950Y0120110D03*
X0034635Y0120268D03*
X0034477Y0120425D03*
X0034162Y0120583D03*
X0033690Y0120898D03*
X0040619Y0130819D03*
X0043611Y0133339D03*
X0051013Y0133654D03*
X0047706Y0148457D03*
X0048020Y0148614D03*
X0048178Y0148772D03*
X0048493Y0148929D03*
D35*
X0067233Y0140898D03*
X0074005Y0126409D03*
X0073847Y0121213D03*
X0069910Y0120583D03*
X0079674Y0118378D03*
X0082351Y0123890D03*
D36*
X0082115Y0125150D03*
X0082115Y0125307D03*
X0081957Y0125622D03*
X0081800Y0125780D03*
X0081800Y0125937D03*
X0081643Y0126094D03*
X0081485Y0126409D03*
X0081328Y0126567D03*
X0081170Y0126724D03*
X0081013Y0127039D03*
X0080855Y0127197D03*
X0078178Y0121685D03*
X0078335Y0121528D03*
X0078493Y0121370D03*
X0078650Y0121213D03*
X0078808Y0120898D03*
X0078965Y0120740D03*
X0079123Y0120425D03*
X0079280Y0120110D03*
X0079280Y0119953D03*
X0079438Y0119638D03*
X0079595Y0118535D03*
X0073611Y0124992D03*
X0073769Y0125307D03*
X0074398Y0132079D03*
X0072351Y0136646D03*
X0072194Y0136803D03*
X0072036Y0136961D03*
X0071879Y0137118D03*
X0071564Y0137748D03*
X0071406Y0137906D03*
X0078020Y0139323D03*
X0078178Y0139165D03*
X0080540Y0133811D03*
X0080698Y0133654D03*
X0080855Y0133496D03*
X0081013Y0133339D03*
X0081170Y0133181D03*
X0081328Y0132866D03*
X0081485Y0132709D03*
X0065737Y0142000D03*
X0058020Y0144362D03*
X0057863Y0144205D03*
X0057706Y0144047D03*
X0052509Y0145150D03*
X0052351Y0144992D03*
X0052194Y0144835D03*
X0051721Y0144205D03*
X0051564Y0144047D03*
X0051406Y0143890D03*
X0051249Y0143732D03*
X0051249Y0143575D03*
X0051091Y0143417D03*
X0050934Y0143260D03*
X0050776Y0142945D03*
X0050619Y0142630D03*
X0049202Y0143417D03*
X0049044Y0143102D03*
X0048887Y0142630D03*
X0049359Y0143732D03*
X0049517Y0144047D03*
X0049674Y0144362D03*
X0049831Y0144520D03*
X0049989Y0144835D03*
X0050146Y0144992D03*
X0050304Y0145150D03*
X0050304Y0145307D03*
X0050461Y0145465D03*
X0050619Y0145622D03*
X0050776Y0145780D03*
X0045737Y0146882D03*
X0045580Y0146724D03*
X0045422Y0146567D03*
X0045265Y0146409D03*
X0045107Y0146252D03*
X0045107Y0146094D03*
X0044950Y0145937D03*
X0044635Y0145465D03*
X0044477Y0145307D03*
X0044320Y0145150D03*
X0044320Y0144992D03*
X0044162Y0144835D03*
X0044005Y0144677D03*
X0043847Y0144362D03*
X0043690Y0144205D03*
X0043532Y0143890D03*
X0043375Y0143732D03*
X0043375Y0143575D03*
X0043217Y0143417D03*
X0043060Y0143102D03*
X0042902Y0142787D03*
X0042745Y0142472D03*
X0042587Y0142000D03*
X0042430Y0141685D03*
X0042272Y0141213D03*
X0042115Y0140740D03*
X0041643Y0138535D03*
X0041800Y0135386D03*
X0041643Y0135071D03*
X0041485Y0134756D03*
X0041328Y0134441D03*
X0041170Y0134126D03*
X0041485Y0131606D03*
X0041328Y0131449D03*
X0041170Y0131291D03*
X0040383Y0130189D03*
X0045737Y0126882D03*
X0048887Y0123260D03*
X0048572Y0122472D03*
X0048414Y0122315D03*
X0048414Y0122157D03*
X0048257Y0122000D03*
X0048099Y0121685D03*
X0047784Y0121213D03*
X0047627Y0121055D03*
X0047312Y0120583D03*
X0046997Y0120268D03*
X0053454Y0119795D03*
X0053611Y0119953D03*
X0053611Y0120110D03*
X0053769Y0120268D03*
X0053926Y0120425D03*
X0054241Y0120898D03*
X0054398Y0121055D03*
X0054556Y0121213D03*
X0054713Y0121528D03*
X0054871Y0121843D03*
X0055028Y0122157D03*
X0055186Y0122472D03*
X0055343Y0122787D03*
X0055658Y0123890D03*
X0055816Y0124835D03*
X0055816Y0126882D03*
X0055658Y0127984D03*
X0055343Y0129087D03*
X0055186Y0129402D03*
X0055028Y0129717D03*
X0054871Y0130031D03*
X0054713Y0130346D03*
X0054556Y0130661D03*
X0054241Y0131291D03*
X0054398Y0131449D03*
X0054556Y0131606D03*
X0054713Y0131921D03*
X0054871Y0132236D03*
X0054871Y0133024D03*
X0054713Y0133496D03*
X0054556Y0133654D03*
X0031406Y0122787D03*
X0031249Y0122945D03*
X0031091Y0123260D03*
X0030934Y0123417D03*
X0030776Y0123575D03*
X0030619Y0123732D03*
X0030619Y0123890D03*
X0030461Y0124047D03*
X0030304Y0124205D03*
X0030304Y0124362D03*
X0030146Y0124520D03*
X0029989Y0124835D03*
X0029831Y0125150D03*
X0029674Y0125622D03*
D37*
X0029517Y0127669D03*
X0032824Y0121528D03*
X0033296Y0121213D03*
X0033454Y0121055D03*
X0033926Y0120740D03*
X0040068Y0129874D03*
X0040540Y0130661D03*
X0042430Y0132551D03*
X0042587Y0132709D03*
X0043060Y0133024D03*
X0043375Y0133181D03*
X0051879Y0134126D03*
X0054083Y0134126D03*
X0049044Y0141685D03*
X0052036Y0147197D03*
X0052509Y0147512D03*
X0052981Y0147827D03*
X0053926Y0146567D03*
X0053769Y0146409D03*
X0053611Y0146252D03*
X0053611Y0146094D03*
X0054241Y0146724D03*
X0054398Y0146882D03*
X0054713Y0147039D03*
X0058965Y0145307D03*
X0059123Y0145465D03*
X0059595Y0145780D03*
X0060068Y0146094D03*
X0060068Y0146252D03*
X0062115Y0144205D03*
X0061643Y0143890D03*
X0061328Y0143732D03*
X0065894Y0142315D03*
X0066367Y0142630D03*
X0066524Y0142787D03*
X0066839Y0142945D03*
X0066997Y0143102D03*
X0076603Y0140583D03*
X0077076Y0140268D03*
X0077233Y0140110D03*
X0079595Y0134598D03*
X0079753Y0134441D03*
X0081800Y0131764D03*
X0079123Y0128772D03*
X0079123Y0128614D03*
X0079438Y0128457D03*
X0079595Y0128299D03*
X0078650Y0129087D03*
X0081013Y0125150D03*
X0077233Y0122630D03*
X0077076Y0122787D03*
X0076603Y0123102D03*
X0076131Y0123417D03*
X0073611Y0124677D03*
X0069044Y0119480D03*
X0068572Y0119165D03*
X0068414Y0119008D03*
X0068099Y0118850D03*
X0079438Y0118850D03*
X0079595Y0118693D03*
X0074556Y0132236D03*
X0053139Y0119480D03*
X0052351Y0118850D03*
X0045737Y0119008D03*
X0046839Y0147827D03*
X0046997Y0147984D03*
X0047312Y0148142D03*
X0047469Y0148299D03*
D38*
X0046603Y0147669D03*
X0046446Y0147512D03*
X0046288Y0147354D03*
X0046131Y0147197D03*
X0045973Y0147039D03*
X0044871Y0145780D03*
X0044713Y0145622D03*
X0050855Y0145937D03*
X0051013Y0146094D03*
X0051013Y0146252D03*
X0051170Y0146409D03*
X0051328Y0146567D03*
X0051485Y0146724D03*
X0051643Y0146882D03*
X0051800Y0147039D03*
X0052272Y0147354D03*
X0053375Y0145937D03*
X0053217Y0145780D03*
X0053060Y0145622D03*
X0052902Y0145465D03*
X0052745Y0145307D03*
X0052115Y0144677D03*
X0051957Y0144520D03*
X0051800Y0144362D03*
X0050698Y0142787D03*
X0050383Y0142472D03*
X0057627Y0143890D03*
X0058099Y0144520D03*
X0058257Y0144677D03*
X0058414Y0144835D03*
X0058572Y0144992D03*
X0058729Y0145150D03*
X0059359Y0145622D03*
X0065816Y0142157D03*
X0066131Y0142472D03*
X0067233Y0141055D03*
X0071328Y0138063D03*
X0071643Y0137591D03*
X0071643Y0137433D03*
X0071800Y0137276D03*
X0077469Y0139953D03*
X0077627Y0139795D03*
X0077784Y0139638D03*
X0077942Y0139480D03*
X0078414Y0138378D03*
X0079989Y0134283D03*
X0080146Y0134126D03*
X0080304Y0133969D03*
X0081249Y0133024D03*
X0079831Y0128142D03*
X0079989Y0127984D03*
X0080146Y0127827D03*
X0080304Y0127669D03*
X0080461Y0127512D03*
X0080619Y0127354D03*
X0081091Y0126882D03*
X0082194Y0124362D03*
X0082351Y0124205D03*
X0078099Y0121843D03*
X0077942Y0122000D03*
X0077784Y0122157D03*
X0077627Y0122315D03*
X0077469Y0122472D03*
X0076839Y0122945D03*
X0074162Y0125780D03*
X0074792Y0130661D03*
X0068808Y0119323D03*
X0054162Y0120740D03*
X0054005Y0120583D03*
X0053375Y0119638D03*
X0052902Y0119323D03*
X0052745Y0119165D03*
X0052587Y0119008D03*
X0047548Y0120898D03*
X0047391Y0120740D03*
X0047076Y0120425D03*
X0046761Y0120110D03*
X0046761Y0119953D03*
X0046603Y0119795D03*
X0046446Y0119638D03*
X0046288Y0119480D03*
X0046131Y0119323D03*
X0045973Y0119165D03*
X0040304Y0130031D03*
X0040461Y0130346D03*
X0040461Y0130504D03*
X0041564Y0131764D03*
X0041721Y0131921D03*
X0041879Y0132079D03*
X0042036Y0132236D03*
X0042194Y0132394D03*
X0042824Y0132866D03*
X0041879Y0135543D03*
X0041721Y0135701D03*
X0051170Y0133496D03*
X0054320Y0133969D03*
X0054477Y0133811D03*
X0033060Y0121370D03*
X0032587Y0121685D03*
X0032430Y0121843D03*
X0032272Y0122000D03*
X0032115Y0122157D03*
X0031957Y0122315D03*
X0031800Y0122472D03*
X0031643Y0122630D03*
X0031170Y0123102D03*
X0029438Y0127827D03*
D39*
X0053139Y0150346D03*
X0063217Y0147354D03*
X0070461Y0144362D03*
X0072036Y0120583D03*
D40*
X0073847Y0120740D03*
X0076682Y0126094D03*
D41*
X0073847Y0120898D03*
X0077627Y0132866D03*
X0074950Y0136016D03*
D42*
X0080304Y0132551D03*
X0073847Y0121055D03*
X0067548Y0141528D03*
X0070225Y0144205D03*
X0051485Y0149874D03*
D43*
X0048887Y0141528D03*
X0048887Y0123417D03*
X0029202Y0128142D03*
X0072666Y0135858D03*
X0074556Y0131449D03*
X0074556Y0131291D03*
X0078650Y0138220D03*
D44*
X0080776Y0132394D03*
X0075580Y0132551D03*
X0078887Y0125937D03*
X0067391Y0141370D03*
X0067548Y0146094D03*
X0067548Y0146252D03*
D45*
X0076603Y0126252D03*
X0047627Y0134283D03*
D46*
X0071406Y0142157D03*
X0074241Y0136331D03*
X0076603Y0126409D03*
D47*
X0067548Y0145937D03*
X0031170Y0126882D03*
D48*
X0031879Y0127197D03*
X0071406Y0142000D03*
D49*
X0075580Y0139008D03*
X0067391Y0145622D03*
X0060304Y0148614D03*
X0032115Y0127354D03*
D50*
X0077548Y0132709D03*
D51*
X0077706Y0133024D03*
D52*
X0055658Y0148772D03*
X0052981Y0134283D03*
D53*
X0071328Y0141843D03*
X0075422Y0138850D03*
D54*
X0075186Y0139165D03*
X0059438Y0143575D03*
X0053139Y0150189D03*
D55*
X0060304Y0148772D03*
D56*
X0060304Y0148929D03*
D57*
X0053060Y0150031D03*
D58*
X0161446Y0161331D02*
X0161446Y0196764D01*
X0192154Y0196764D01*
X0192154Y0161331D01*
X0161446Y0161331D01*
X0173847Y0175110D02*
X0171879Y0194795D01*
X0168926Y0194795D02*
X0170894Y0177079D01*
X0173847Y0175110D02*
X0179753Y0175110D01*
X0181721Y0194795D01*
X0184674Y0194795D02*
X0182706Y0179047D01*
X0190580Y0179047D02*
X0188611Y0194795D01*
X0184674Y0194795D01*
X0168926Y0194795D02*
X0164989Y0194795D01*
X0163020Y0177079D01*
M02*
