%
M48
M72
T01C0.01969
T02C0.03150
T03C0.03200
T04C0.03937
T05C0.04000
T06C0.07480
%
T01
X21800Y32000
X66800Y32000
X26800Y97000
X16800Y122000
X16800Y142000
X21800Y167000
X131800Y102000
X151800Y82000
T02
X170501Y161921
X173650Y166646
X176800Y161921
X179950Y166646
X183099Y161921
X139674Y187000
X131800Y187000
X123926Y187000
T03
X21800Y189500
X36800Y172000
X36800Y162000
X61800Y157000
X61800Y177000
X61800Y189500
X91800Y162000
X91800Y152000
X91800Y142000
X91800Y132000
X91800Y122000
X91800Y112000
X91800Y102000
X91800Y92000
X91800Y82000
X91800Y72000
X91800Y62000
X91800Y52000
X91800Y42000
X91800Y32000
X94300Y14500
X84300Y14500
X56800Y42000
X41800Y39500
X41800Y79500
X36800Y92000
X46800Y92000
X56800Y82000
X121800Y82000
X121800Y72000
X121800Y62000
X121800Y52000
X121800Y42000
X121800Y32000
X129300Y14500
X139300Y14500
X156800Y47000
X156800Y67000
X151800Y97000
X151800Y107000
X121800Y102000
X121800Y92000
X121800Y112000
X121800Y122000
X121800Y132000
X121800Y142000
X121800Y152000
X121800Y162000
X136800Y152000
X146800Y152000
X103050Y188250
X98050Y180750
X93050Y188250
X191800Y54500
X191800Y14500
T04
X21957Y17000
X41643Y17000
X51957Y17000
X71643Y17000
X71800Y72157
X71800Y82000
X71800Y91843
X116052Y187000
X147548Y187000
T05
X6800Y192000
X6800Y182000
X6800Y172000
X6800Y162000
X6800Y152000
X6800Y137000
X6800Y127000
X6800Y117000
X6800Y107000
X6800Y97000
X6800Y87000
X6800Y77000
X6800Y67000
X193800Y67000
X193800Y77000
X193800Y87000
X193800Y97000
X193800Y107000
X193800Y117000
X193800Y127000
X193800Y137000
T06
X162430Y182000
X191170Y182000
M30
