G75*
%MOIN*%
%OFA0B0*%
%FSLAX25Y25*%
%IPPOS*%
%LPD*%
%AMOC8*
5,1,8,0,0,1.08239X$1,22.5*
%
%ADD10C,0.00000*%
%ADD11OC8,0.05200*%
%ADD12C,0.07500*%
%ADD13OC8,0.07500*%
%ADD14C,0.07400*%
%ADD15C,0.05937*%
%ADD16C,0.05200*%
%ADD17C,0.07600*%
%ADD18C,0.05150*%
%ADD19C,0.11220*%
%ADD20C,0.01600*%
%ADD21C,0.03169*%
D10*
X0001800Y0002000D02*
X0001800Y0198850D01*
X0198650Y0198850D01*
X0198650Y0002000D01*
X0001800Y0002000D01*
D11*
X0041800Y0039500D03*
X0056800Y0042000D03*
X0084300Y0014500D03*
X0094300Y0014500D03*
X0129300Y0014500D03*
X0139300Y0014500D03*
X0191800Y0014500D03*
X0191800Y0054500D03*
X0151800Y0097000D03*
X0151800Y0107000D03*
X0146800Y0152000D03*
X0136800Y0152000D03*
X0103050Y0188250D03*
X0098050Y0180750D03*
X0093050Y0188250D03*
X0061800Y0189500D03*
X0036800Y0172000D03*
X0036800Y0162000D03*
X0021800Y0189500D03*
X0036800Y0092000D03*
X0046800Y0092000D03*
X0056800Y0082000D03*
X0041800Y0079500D03*
D12*
X0061800Y0177000D03*
X0156800Y0067000D03*
D13*
X0156800Y0047000D03*
X0061800Y0157000D03*
D14*
X0006800Y0152000D03*
X0006800Y0162000D03*
X0006800Y0172000D03*
X0006800Y0182000D03*
X0006800Y0192000D03*
X0006800Y0137000D03*
X0006800Y0127000D03*
X0006800Y0117000D03*
X0006800Y0107000D03*
X0006800Y0097000D03*
X0006800Y0087000D03*
X0006800Y0077000D03*
X0006800Y0067000D03*
X0193800Y0067000D03*
X0193800Y0077000D03*
X0193800Y0087000D03*
X0193800Y0097000D03*
X0193800Y0107000D03*
X0193800Y0117000D03*
X0193800Y0127000D03*
X0193800Y0137000D03*
D15*
X0147548Y0187000D03*
X0116052Y0187000D03*
X0071643Y0017000D03*
X0051957Y0017000D03*
X0041643Y0017000D03*
X0021957Y0017000D03*
D16*
X0089200Y0032000D02*
X0094400Y0032000D01*
X0094400Y0042000D02*
X0089200Y0042000D01*
X0089200Y0052000D02*
X0094400Y0052000D01*
X0094400Y0062000D02*
X0089200Y0062000D01*
X0089200Y0072000D02*
X0094400Y0072000D01*
X0094400Y0082000D02*
X0089200Y0082000D01*
X0089200Y0092000D02*
X0094400Y0092000D01*
X0094400Y0102000D02*
X0089200Y0102000D01*
X0089200Y0112000D02*
X0094400Y0112000D01*
X0094400Y0122000D02*
X0089200Y0122000D01*
X0089200Y0132000D02*
X0094400Y0132000D01*
X0094400Y0142000D02*
X0089200Y0142000D01*
X0089200Y0152000D02*
X0094400Y0152000D01*
X0094400Y0162000D02*
X0089200Y0162000D01*
X0119200Y0162000D02*
X0124400Y0162000D01*
X0124400Y0152000D02*
X0119200Y0152000D01*
X0119200Y0142000D02*
X0124400Y0142000D01*
X0124400Y0132000D02*
X0119200Y0132000D01*
X0119200Y0122000D02*
X0124400Y0122000D01*
X0124400Y0112000D02*
X0119200Y0112000D01*
X0119200Y0102000D02*
X0124400Y0102000D01*
X0124400Y0092000D02*
X0119200Y0092000D01*
X0119200Y0082000D02*
X0124400Y0082000D01*
X0124400Y0072000D02*
X0119200Y0072000D01*
X0119200Y0062000D02*
X0124400Y0062000D01*
X0124400Y0052000D02*
X0119200Y0052000D01*
X0119200Y0042000D02*
X0124400Y0042000D01*
X0124400Y0032000D02*
X0119200Y0032000D01*
D17*
X0071800Y0072157D03*
X0071800Y0082000D03*
X0071800Y0091843D03*
D18*
X0123926Y0187000D03*
X0131800Y0187000D03*
X0139674Y0187000D03*
X0170501Y0161921D03*
X0173650Y0166646D03*
X0176800Y0161921D03*
X0179950Y0166646D03*
X0183099Y0161921D03*
D19*
X0191170Y0182000D03*
X0162430Y0182000D03*
D20*
X0161800Y0192000D02*
X0170550Y0192000D01*
X0193850Y0168700D01*
X0193850Y0154050D01*
X0181800Y0142000D01*
X0181800Y0087000D01*
X0183800Y0087000D01*
X0193800Y0077000D01*
X0151800Y0072000D02*
X0141800Y0062000D01*
X0141800Y0032000D01*
X0131800Y0022000D01*
X0101800Y0022000D01*
X0091800Y0032000D01*
X0091800Y0042000D02*
X0101800Y0042000D01*
X0106800Y0047000D01*
X0106800Y0112000D01*
X0121800Y0112000D01*
X0121800Y0102000D02*
X0119300Y0102000D01*
X0111800Y0094500D01*
X0111800Y0090750D01*
X0115550Y0087000D01*
X0140550Y0087000D01*
X0146800Y0093250D01*
X0146800Y0112000D01*
X0187274Y0152474D01*
X0187274Y0163651D01*
X0184828Y0166096D01*
X0180499Y0166096D01*
X0179950Y0166646D01*
X0176800Y0161921D02*
X0176800Y0147000D01*
X0141800Y0112000D01*
X0141800Y0097000D01*
X0136800Y0092000D01*
X0121800Y0092000D01*
X0131800Y0102000D02*
X0131800Y0107000D01*
X0161800Y0137000D01*
X0161800Y0162000D01*
X0166446Y0166646D01*
X0173650Y0166646D01*
X0161800Y0192000D02*
X0146800Y0177000D01*
X0146800Y0152000D01*
X0123926Y0174874D01*
X0123926Y0187000D01*
X0121800Y0172000D02*
X0121800Y0162000D01*
X0106800Y0162000D01*
X0106800Y0112000D01*
X0091800Y0142000D02*
X0076800Y0142000D01*
X0061800Y0127000D01*
X0006800Y0127000D01*
X0006800Y0137000D02*
X0061800Y0137000D01*
X0076800Y0152000D01*
X0091800Y0152000D01*
X0096800Y0172000D02*
X0121800Y0172000D01*
X0096800Y0172000D02*
X0093050Y0175750D01*
X0093050Y0188250D01*
X0061800Y0189500D02*
X0061800Y0177000D01*
X0021800Y0167000D02*
X0021800Y0147000D01*
X0016800Y0142000D01*
X0016800Y0122000D02*
X0021800Y0122000D01*
X0021800Y0067000D01*
X0031800Y0057000D01*
X0031800Y0026843D01*
X0041643Y0017000D01*
X0056800Y0031843D02*
X0071643Y0017000D01*
X0076800Y0022000D02*
X0066800Y0032000D01*
X0066800Y0042000D01*
X0076800Y0052000D01*
X0091800Y0052000D01*
X0091800Y0062000D02*
X0081800Y0062000D01*
X0061800Y0042000D01*
X0056800Y0042000D01*
X0056800Y0031843D01*
X0056800Y0042000D02*
X0026800Y0072000D01*
X0026800Y0097000D01*
X0015550Y0083250D02*
X0015550Y0038250D01*
X0021800Y0032000D01*
X0015550Y0083250D02*
X0011800Y0087000D01*
X0006800Y0087000D01*
X0076800Y0022000D02*
X0086800Y0022000D01*
X0094300Y0014500D01*
X0151800Y0072000D02*
X0151800Y0082000D01*
X0021800Y0167000D02*
X0021800Y0189500D01*
D21*
X0021800Y0167000D03*
X0016800Y0142000D03*
X0016800Y0122000D03*
X0026800Y0097000D03*
X0021800Y0032000D03*
X0066800Y0032000D03*
X0131800Y0102000D03*
X0151800Y0082000D03*
M02*
